<svg width="541" height="171" viewBox="0 0 541 171" fill="none" xmlns="http://www.w3.org/2000/svg">
<path d="M138.8 101.072C143.536 101.072 147.675 102.011 151.216 103.888C154.757 105.765 157.488 108.411 159.408 111.824C161.371 115.195 162.352 119.099 162.352 123.536C162.352 127.931 161.371 131.835 159.408 135.248C157.488 138.661 154.736 141.307 151.152 143.184C147.611 145.061 143.493 146 138.8 146H121.968V101.072H138.8ZM138.096 136.528C142.235 136.528 145.456 135.397 147.76 133.136C150.064 130.875 151.216 127.675 151.216 123.536C151.216 119.397 150.064 116.176 147.76 113.872C145.456 111.568 142.235 110.416 138.096 110.416H132.912V136.528H138.096ZM202.132 127.568C202.132 128.592 202.068 129.659 201.94 130.768H177.172C177.343 132.987 178.047 134.693 179.284 135.888C180.564 137.04 182.121 137.616 183.956 137.616C186.687 137.616 188.585 136.464 189.652 134.16H201.3C200.703 136.507 199.615 138.619 198.036 140.496C196.5 142.373 194.559 143.845 192.212 144.912C189.865 145.979 187.241 146.512 184.34 146.512C180.841 146.512 177.727 145.765 174.996 144.272C172.265 142.779 170.132 140.645 168.596 137.872C167.06 135.099 166.292 131.856 166.292 128.144C166.292 124.432 167.039 121.189 168.532 118.416C170.068 115.643 172.201 113.509 174.932 112.016C177.663 110.523 180.799 109.776 184.34 109.776C187.796 109.776 190.868 110.501 193.556 111.952C196.244 113.403 198.335 115.472 199.828 118.16C201.364 120.848 202.132 123.984 202.132 127.568ZM190.932 124.688C190.932 122.811 190.292 121.317 189.012 120.208C187.732 119.099 186.132 118.544 184.212 118.544C182.377 118.544 180.82 119.077 179.54 120.144C178.303 121.211 177.535 122.725 177.236 124.688H190.932ZM222.434 146.512C219.319 146.512 216.546 145.979 214.114 144.912C211.682 143.845 209.762 142.395 208.354 140.56C206.946 138.683 206.156 136.592 205.986 134.288H216.802C216.93 135.525 217.506 136.528 218.53 137.296C219.554 138.064 220.812 138.448 222.306 138.448C223.671 138.448 224.716 138.192 225.442 137.68C226.21 137.125 226.594 136.421 226.594 135.568C226.594 134.544 226.06 133.797 224.994 133.328C223.927 132.816 222.199 132.261 219.81 131.664C217.25 131.067 215.116 130.448 213.41 129.808C211.703 129.125 210.231 128.08 208.994 126.672C207.756 125.221 207.138 123.28 207.138 120.848C207.138 118.8 207.692 116.944 208.802 115.28C209.954 113.573 211.618 112.229 213.794 111.248C216.012 110.267 218.636 109.776 221.666 109.776C226.146 109.776 229.666 110.885 232.226 113.104C234.828 115.323 236.322 118.267 236.706 121.936H226.594C226.423 120.699 225.868 119.717 224.93 118.992C224.034 118.267 222.839 117.904 221.346 117.904C220.066 117.904 219.084 118.16 218.402 118.672C217.719 119.141 217.378 119.803 217.378 120.656C217.378 121.68 217.911 122.448 218.978 122.96C220.087 123.472 221.794 123.984 224.098 124.496C226.743 125.179 228.898 125.861 230.562 126.544C232.226 127.184 233.676 128.251 234.914 129.744C236.194 131.195 236.855 133.157 236.898 135.632C236.898 137.723 236.3 139.6 235.106 141.264C233.954 142.885 232.268 144.165 230.05 145.104C227.874 146.043 225.335 146.512 222.434 146.512ZM265.545 109.904C269.641 109.904 272.926 111.269 275.401 114C277.876 116.688 279.113 120.4 279.113 125.136V146H268.233V126.608C268.233 124.219 267.614 122.363 266.377 121.04C265.14 119.717 263.476 119.056 261.385 119.056C259.294 119.056 257.63 119.717 256.393 121.04C255.156 122.363 254.537 124.219 254.537 126.608V146H243.593V98.64H254.537V115.088C255.646 113.509 257.161 112.251 259.081 111.312C261.001 110.373 263.156 109.904 265.545 109.904ZM292.222 106.576C290.302 106.576 288.723 106.021 287.486 104.912C286.291 103.76 285.694 102.352 285.694 100.688C285.694 98.9813 286.291 97.5733 287.486 96.464C288.723 95.312 290.302 94.736 292.222 94.736C294.099 94.736 295.635 95.312 296.83 96.464C298.067 97.5733 298.686 98.9813 298.686 100.688C298.686 102.352 298.067 103.76 296.83 104.912C295.635 106.021 294.099 106.576 292.222 106.576ZM297.662 110.288V146H286.718V110.288H297.662ZM322.425 101.072C327.161 101.072 331.3 102.011 334.841 103.888C338.382 105.765 341.113 108.411 343.033 111.824C344.996 115.195 345.977 119.099 345.977 123.536C345.977 127.931 344.996 131.835 343.033 135.248C341.113 138.661 338.361 141.307 334.777 143.184C331.236 145.061 327.118 146 322.425 146H305.593V101.072H322.425ZM321.721 136.528C325.86 136.528 329.081 135.397 331.385 133.136C333.689 130.875 334.841 127.675 334.841 123.536C334.841 119.397 333.689 116.176 331.385 113.872C329.081 111.568 325.86 110.416 321.721 110.416H316.537V136.528H321.721ZM357.597 106.576C355.677 106.576 354.098 106.021 352.861 104.912C351.666 103.76 351.069 102.352 351.069 100.688C351.069 98.9813 351.666 97.5733 352.861 96.464C354.098 95.312 355.677 94.736 357.597 94.736C359.474 94.736 361.01 95.312 362.205 96.464C363.442 97.5733 364.061 98.9813 364.061 100.688C364.061 102.352 363.442 103.76 362.205 104.912C361.01 106.021 359.474 106.576 357.597 106.576ZM363.037 110.288V146H352.093V110.288H363.037ZM368.792 128.08C368.792 124.411 369.475 121.189 370.84 118.416C372.248 115.643 374.147 113.509 376.536 112.016C378.925 110.523 381.592 109.776 384.536 109.776C387.053 109.776 389.251 110.288 391.128 111.312C393.048 112.336 394.52 113.68 395.544 115.344V110.288H406.488V146H395.544V140.944C394.477 142.608 392.984 143.952 391.064 144.976C389.187 146 386.989 146.512 384.472 146.512C381.571 146.512 378.925 145.765 376.536 144.272C374.147 142.736 372.248 140.581 370.84 137.808C369.475 134.992 368.792 131.749 368.792 128.08ZM395.544 128.144C395.544 125.413 394.776 123.259 393.24 121.68C391.747 120.101 389.912 119.312 387.736 119.312C385.56 119.312 383.704 120.101 382.168 121.68C380.675 123.216 379.928 125.349 379.928 128.08C379.928 130.811 380.675 132.987 382.168 134.608C383.704 136.187 385.56 136.976 387.736 136.976C389.912 136.976 391.747 136.187 393.24 134.608C394.776 133.029 395.544 130.875 395.544 128.144ZM425.35 116.24C426.63 114.277 428.23 112.741 430.15 111.632C432.07 110.48 434.203 109.904 436.55 109.904V121.488H433.542C430.811 121.488 428.763 122.085 427.398 123.28C426.032 124.432 425.35 126.48 425.35 129.424V146H414.406V110.288H425.35V116.24ZM478.261 110.288L455.861 162.96H444.085L452.277 144.784L437.748 110.288H449.973L458.229 132.624L466.421 110.288H478.261Z" fill="#474747"/>
<g clip-path="url(#clip0_909_1009)">
<path d="M58.9815 92.1378L41.0062 141.465M58.9815 92.1378C58.9815 92.1378 47.6751 72.0526 26.953 77.8053L8.12167 129.481C28.8438 123.728 41.0062 141.465 41.0062 141.465C41.0062 141.465 61.7283 135.712 73.8908 153.448L92.7221 101.772C80.5596 84.0362 58.9815 92.1378 58.9815 92.1378Z" stroke="#424242" stroke-width="4" stroke-linecap="round" stroke-linejoin="round"/>
</g>
<path d="M80.0245 71.4635C80.1741 71.0029 80.8259 71.0029 80.9755 71.4635L82.0716 74.8369C82.1385 75.0429 82.3305 75.1824 82.5471 75.1824H86.0941C86.5784 75.1824 86.7798 75.8022 86.388 76.0869L83.5184 78.1717C83.3432 78.2991 83.2699 78.5247 83.3368 78.7307L84.4329 82.1041C84.5825 82.5648 84.0553 82.9478 83.6634 82.6631L80.7939 80.5783C80.6186 80.4509 80.3814 80.4509 80.2061 80.5783L77.3366 82.6631C76.9447 82.9478 76.4175 82.5648 76.5671 82.1041L77.6632 78.7307C77.7301 78.5247 77.6568 78.2991 77.4816 78.1717L74.612 76.0869C74.2202 75.8022 74.4216 75.1824 74.9059 75.1824H78.4529C78.6695 75.1824 78.8615 75.0429 78.9284 74.8369L80.0245 71.4635Z" fill="#008080"/>
<path d="M92.5245 47.4635C92.6741 47.0029 93.3259 47.0029 93.4755 47.4635L95.1329 52.5643C95.1998 52.7703 95.3918 52.9098 95.6084 52.9098H100.972C101.456 52.9098 101.657 53.5296 101.266 53.8143L96.9266 56.9668C96.7514 57.0941 96.678 57.3198 96.745 57.5258L98.4023 62.6266C98.552 63.0873 98.0248 63.4704 97.6329 63.1857L93.2939 60.0332C93.1186 59.9059 92.8814 59.9059 92.7061 60.0332L88.3671 63.1857C87.9752 63.4704 87.448 63.0873 87.5977 62.6266L89.255 57.5258C89.322 57.3198 89.2486 57.0941 89.0734 56.9668L84.7344 53.8143C84.3425 53.5296 84.5439 52.9098 85.0283 52.9098H90.3916C90.6082 52.9098 90.8002 52.7703 90.8671 52.5643L92.5245 47.4635Z" fill="#008080"/>
<path d="M115.573 26.3906C116.022 25.0086 117.978 25.0086 118.427 26.3906L120.031 31.3283C120.232 31.9463 120.808 32.3647 121.458 32.3647H126.649C128.102 32.3647 128.707 34.2242 127.531 35.0783L123.331 38.1299C122.805 38.5119 122.585 39.189 122.786 39.807L124.39 44.7447C124.839 46.1266 123.258 47.2758 122.082 46.4217L117.882 43.3701C117.356 42.9881 116.644 42.9881 116.118 43.3701L111.918 46.4217C110.742 47.2758 109.161 46.1266 109.61 44.7447L111.214 39.807C111.415 39.189 111.195 38.5119 110.669 38.1299L106.469 35.0783C105.293 34.2242 105.898 32.3647 107.351 32.3647H112.542C113.192 32.3647 113.768 31.9463 113.969 31.3283L115.573 26.3906Z" fill="#008080"/>
<path d="M148.573 4.39057C149.022 3.00861 150.978 3.00861 151.427 4.39058L154.154 12.7832C154.354 13.4012 154.93 13.8197 155.58 13.8197H164.405C165.858 13.8197 166.462 15.6791 165.286 16.5332L158.147 21.7201C157.621 22.1021 157.401 22.7791 157.602 23.3972L160.329 31.7898C160.778 33.1717 159.196 34.3209 158.021 33.4668L150.882 28.2799C150.356 27.8979 149.644 27.8979 149.118 28.2799L141.979 33.4668C140.804 34.3209 139.222 33.1717 139.671 31.7898L142.398 23.3972C142.599 22.7791 142.379 22.1021 141.853 21.7201L134.714 16.5332C133.538 15.6791 134.142 13.8197 135.595 13.8197H144.42C145.07 13.8197 145.646 13.4012 145.846 12.7832L148.573 4.39057Z" fill="#008080"/>
<defs>
<clipPath id="clip0_909_1009">
<rect x="27.391" y="62" width="80" height="80" rx="4" transform="rotate(20.0224 27.391 62)" fill="white"/>
</clipPath>
</defs>
</svg>
