<svg width="1200" height="627" viewBox="0 0 1200 627" fill="none" xmlns="http://www.w3.org/2000/svg">
<g clip-path="url(#clip0_981_989)" filter="url(#filter0_b_981_989)">
<rect width="1200" height="627" fill="white"/>
<path d="M-2.0445 138.879C0.408979 131.327 11.0972 131.327 13.5507 138.879L22.3155 165.86C23.4138 169.237 26.5613 171.523 30.1131 171.523H58.4784C66.4181 171.523 69.724 181.684 63.2979 186.351L40.3478 203.026C37.4735 205.114 36.2714 208.814 37.3697 212.191L46.1345 239.172C48.5879 246.723 39.9489 253.003 33.5228 248.335L10.5727 231.66C7.69842 229.573 3.80778 229.573 0.933544 231.66L-22.0166 248.335C-28.4427 253.003 -37.0817 246.723 -34.6283 239.172L-25.8635 212.191C-24.7652 208.814 -25.9673 205.114 -28.8416 203.026L-51.7917 186.351C-58.2178 181.684 -54.9119 171.523 -46.9722 171.523H-18.6069C-15.0551 171.523 -11.9076 169.237 -10.8093 165.86L-2.0445 138.879Z" fill="#008080" fill-opacity="0.05"/>
<path d="M178.278 18.6636C180.732 11.1121 191.42 11.1121 193.873 18.6637L208.775 64.5237C209.868 67.9006 213.015 70.1874 216.567 70.1874H264.789C272.729 70.1874 276.03 80.3478 269.604 85.0149L230.594 113.358C227.72 115.445 226.517 119.145 227.616 122.522L242.517 168.382C244.97 175.933 236.326 182.213 229.905 177.546L190.895 149.203C188.021 147.115 184.131 147.115 181.256 149.203L142.247 177.546C135.826 182.213 127.181 175.933 129.635 168.382L144.536 122.522C145.634 119.145 144.432 115.445 141.558 113.358L102.548 85.0149C96.1222 80.3478 99.4226 70.1874 107.362 70.1874H155.585C159.137 70.1874 162.284 67.9006 163.377 64.5237L178.278 18.6636Z" fill="#008080" fill-opacity="0.05"/>
<g filter="url(#filter1_b_981_989)">
<rect width="1200" height="627" fill="white" fill-opacity="0.02"/>
<path d="M703.707 465.172C704.524 462.655 708.086 462.655 708.903 465.172L714.893 483.605C715.259 484.731 716.308 485.493 717.491 485.493H736.873C739.52 485.493 740.62 488.88 738.479 490.436L722.799 501.828C721.841 502.524 721.441 503.757 721.806 504.882L727.796 523.316C728.613 525.833 725.733 527.926 723.591 526.37L707.911 514.978C706.953 514.282 705.657 514.282 704.699 514.978L689.019 526.37C686.878 527.926 683.997 525.833 684.815 523.316L690.804 504.882C691.17 503.757 690.769 502.524 689.812 501.828L674.131 490.436C671.99 488.88 673.091 485.493 675.737 485.493H695.119C696.303 485.493 697.352 484.731 697.717 483.605L703.707 465.172Z" fill="#008080" fill-opacity="0.05"/>
<path d="M772.011 334.028C772.829 331.511 776.39 331.511 777.208 334.028L786.264 361.901C786.63 363.026 787.679 363.789 788.863 363.789H818.171C820.816 363.789 821.914 367.175 819.778 368.731L796.066 385.957C795.108 386.653 794.707 387.886 795.073 389.012L804.129 416.884C804.948 419.402 802.067 421.495 799.925 419.939L776.216 402.713C775.258 402.018 773.962 402.018 773.004 402.713L749.294 419.939C747.152 421.495 744.272 419.402 745.09 416.884L754.146 389.012C754.512 387.886 754.111 386.653 753.153 385.957L729.444 368.731C727.302 367.175 728.403 363.789 731.05 363.789H760.356C761.54 363.789 762.589 363.026 762.955 361.901L772.011 334.028Z" fill="#008080" fill-opacity="0.05"/>
<path d="M897.955 218.879C900.409 211.327 911.097 211.327 913.551 218.879L922.315 245.86C923.414 249.237 926.561 251.523 930.113 251.523H958.478C966.418 251.523 969.724 261.684 963.298 266.351L940.348 283.026C937.474 285.114 936.271 288.814 937.37 292.191L946.134 319.172C948.588 326.723 939.949 333.003 933.523 328.335L910.573 311.66C907.698 309.573 903.808 309.573 900.934 311.66L877.983 328.335C871.557 333.003 862.918 326.723 865.372 319.172L874.136 292.191C875.235 288.814 874.033 285.114 871.158 283.026L848.208 266.351C841.782 261.684 845.088 251.523 853.028 251.523H881.393C884.945 251.523 888.092 249.237 889.191 245.86L897.955 218.879Z" fill="#008080" fill-opacity="0.05"/>
<path d="M1078.28 98.6636C1080.73 91.1121 1091.42 91.1121 1093.87 98.6637L1108.77 144.524C1109.87 147.901 1113.02 150.187 1116.57 150.187H1164.79C1172.73 150.187 1176.03 160.348 1169.6 165.015L1130.59 193.358C1127.72 195.445 1126.52 199.145 1127.62 202.522L1142.52 248.382C1144.97 255.933 1136.33 262.213 1129.91 257.546L1090.9 229.203C1088.02 227.115 1084.13 227.115 1081.26 229.203L1042.25 257.546C1035.83 262.213 1027.18 255.933 1029.63 248.382L1044.54 202.522C1045.63 199.145 1044.43 195.445 1041.56 193.358L1002.55 165.015C996.122 160.348 999.423 150.187 1007.36 150.187H1055.59C1059.14 150.187 1062.28 147.901 1063.38 144.524L1078.28 98.6636Z" fill="#008080" fill-opacity="0.05"/>
</g>
<g filter="url(#filter2_b_981_989)">
<path d="M395.512 337.932C402.866 337.932 409.292 339.39 414.79 342.305C420.288 345.219 424.529 349.328 427.51 354.627C430.558 359.861 432.081 365.923 432.081 372.812C432.081 379.636 430.558 385.698 427.51 390.997C424.529 396.296 420.256 400.405 414.691 403.319C409.193 406.233 402.799 407.691 395.512 407.691H369.377V337.932H395.512ZM394.419 392.984C400.845 392.984 405.847 391.228 409.424 387.718C413.001 384.207 414.79 379.238 414.79 372.812C414.79 366.385 413.001 361.384 409.424 357.807C405.847 354.229 400.845 352.441 394.419 352.441H386.37V392.984H394.419ZM493.846 379.072C493.846 380.662 493.747 382.319 493.548 384.041H455.091C455.357 387.486 456.45 390.135 458.371 391.991C460.358 393.779 462.776 394.674 465.625 394.674C469.865 394.674 472.812 392.885 474.469 389.308H492.555C491.628 392.952 489.938 396.231 487.487 399.145C485.102 402.06 482.088 404.345 478.444 406.002C474.8 407.659 470.725 408.486 466.221 408.486C460.788 408.486 455.953 407.326 451.713 405.008C447.472 402.69 444.161 399.377 441.776 395.071C439.391 390.766 438.198 385.73 438.198 379.967C438.198 374.203 439.358 369.168 441.676 364.862C444.061 360.557 447.373 357.243 451.613 354.925C455.854 352.607 460.723 351.447 466.221 351.447C471.587 351.447 476.357 352.573 480.531 354.826C484.704 357.079 487.951 360.291 490.269 364.465C492.654 368.638 493.846 373.508 493.846 379.072ZM476.456 374.601C476.456 371.686 475.463 369.367 473.475 367.645C471.488 365.923 469.004 365.061 466.022 365.061C463.173 365.061 460.756 365.888 458.768 367.545C456.848 369.202 455.655 371.553 455.191 374.601H476.456ZM525.369 408.486C520.532 408.486 516.227 407.659 512.451 406.002C508.674 404.345 505.693 402.094 503.507 399.245C501.321 396.33 500.094 393.084 499.83 389.506H516.624C516.823 391.427 517.717 392.984 519.307 394.177C520.897 395.369 522.85 395.965 525.17 395.965C527.29 395.965 528.912 395.568 530.039 394.773C531.232 393.911 531.828 392.818 531.828 391.494C531.828 389.904 530.999 388.744 529.344 388.016C527.687 387.221 525.004 386.359 521.295 385.432C517.32 384.505 514.006 383.544 511.358 382.55C508.707 381.49 506.422 379.867 504.501 377.681C502.579 375.428 501.619 372.414 501.619 368.638C501.619 365.458 502.479 362.577 504.203 359.993C505.991 357.343 508.575 355.256 511.954 353.733C515.398 352.209 519.472 351.447 524.176 351.447C531.132 351.447 536.598 353.169 540.573 356.614C544.613 360.06 546.933 364.631 547.529 370.328H531.828C531.563 368.407 530.701 366.882 529.244 365.757C527.853 364.631 525.998 364.067 523.68 364.067C521.692 364.067 520.167 364.465 519.108 365.26C518.048 365.988 517.519 367.016 517.519 368.34C517.519 369.93 518.346 371.123 520.003 371.918C521.725 372.713 524.375 373.508 527.953 374.302C532.059 375.363 535.405 376.422 537.989 377.482C540.573 378.476 542.824 380.133 544.746 382.451C546.734 384.704 547.76 387.75 547.827 391.593C547.827 394.84 546.898 397.754 545.044 400.338C543.256 402.855 540.638 404.842 537.194 406.3C533.815 407.758 529.873 408.486 525.369 408.486ZM592.307 351.646C598.666 351.646 603.767 353.765 607.61 358.006C611.453 362.179 613.373 367.943 613.373 375.296V407.691H596.48V377.582C596.48 373.872 595.519 370.991 593.598 368.936C591.678 366.882 589.094 365.856 585.847 365.856C582.601 365.856 580.017 366.882 578.096 368.936C576.176 370.991 575.215 373.872 575.215 377.582V407.691H558.222V334.156H575.215V359.695C576.937 357.243 579.289 355.29 582.27 353.832C585.251 352.374 588.597 351.646 592.307 351.646ZM633.727 346.478C630.746 346.478 628.294 345.617 626.374 343.895C624.518 342.106 623.591 339.92 623.591 337.336C623.591 334.686 624.518 332.5 626.374 330.778C628.294 328.989 630.746 328.095 633.727 328.095C636.642 328.095 639.027 328.989 640.882 330.778C642.803 332.5 643.764 334.686 643.764 337.336C643.764 339.92 642.803 342.106 640.882 343.895C639.027 345.617 636.642 346.478 633.727 346.478ZM642.174 352.242V407.691H625.181V352.242H642.174ZM680.623 337.932C687.976 337.932 694.403 339.39 699.901 342.305C705.399 345.219 709.639 349.328 712.621 354.627C715.668 359.861 717.192 365.923 717.192 372.812C717.192 379.636 715.668 385.698 712.621 390.997C709.639 396.296 705.366 400.405 699.802 403.319C694.304 406.233 687.91 407.691 680.623 407.691H654.488V337.932H680.623ZM679.53 392.984C685.956 392.984 690.958 391.228 694.535 387.718C698.112 384.207 699.901 379.238 699.901 372.812C699.901 366.385 698.112 361.384 694.535 357.807C690.958 354.229 685.956 352.441 679.53 352.441H671.481V392.984H679.53ZM735.234 346.478C732.253 346.478 729.801 345.617 727.88 343.895C726.025 342.106 725.098 339.92 725.098 337.336C725.098 334.686 726.025 332.5 727.88 330.778C729.801 328.989 732.253 328.095 735.234 328.095C738.148 328.095 740.533 328.989 742.389 330.778C744.309 332.5 745.27 334.686 745.27 337.336C745.27 339.92 744.309 342.106 742.389 343.895C740.533 345.617 738.148 346.478 735.234 346.478ZM743.68 352.242V407.691H726.688V352.242H743.68ZM752.616 379.867C752.616 374.171 753.677 369.168 755.796 364.862C757.982 360.557 760.931 357.243 764.64 354.925C768.349 352.607 772.49 351.447 777.061 351.447C780.97 351.447 784.382 352.242 787.297 353.832C790.278 355.422 792.563 357.509 794.153 360.092V352.242H811.146V407.691H794.153V399.841C792.497 402.425 790.179 404.511 787.197 406.101C784.283 407.691 780.87 408.486 776.962 408.486C772.458 408.486 768.349 407.326 764.64 405.008C760.931 402.623 757.982 399.277 755.796 394.972C753.677 390.599 752.616 385.564 752.616 379.867ZM794.153 379.967C794.153 375.726 792.961 372.382 790.576 369.93C788.258 367.478 785.409 366.253 782.03 366.253C778.651 366.253 775.77 367.478 773.385 369.93C771.067 372.315 769.907 375.627 769.907 379.867C769.907 384.108 771.067 387.486 773.385 390.003C775.77 392.455 778.651 393.68 782.03 393.68C785.409 393.68 788.258 392.455 790.576 390.003C792.961 387.551 794.153 384.207 794.153 379.967ZM840.433 361.484C842.42 358.436 844.904 356.051 847.885 354.329C850.867 352.54 854.178 351.646 857.823 351.646V369.632H853.152C848.912 369.632 845.732 370.559 843.612 372.414C841.491 374.203 840.433 377.383 840.433 381.954V407.691H823.44V352.242H840.433V361.484ZM922.586 352.242L887.806 434.025H869.522L882.242 405.803L859.683 352.242H878.664L891.483 386.923L904.203 352.242H922.586Z" fill="#474747"/>
<path d="M271.579 324.061L243.67 400.65M271.579 324.061C271.579 324.061 254.024 292.875 221.849 301.807L192.61 382.043C224.785 373.11 243.67 400.65 243.67 400.65C243.67 400.65 275.844 391.717 294.729 419.256L323.968 339.019C305.083 311.481 271.579 324.061 271.579 324.061Z" stroke="#424242" stroke-width="4" stroke-linecap="round" stroke-linejoin="round"/>
<path d="M304.252 291.96C304.485 291.245 305.497 291.245 305.729 291.96L307.431 297.198C307.535 297.518 307.833 297.734 308.169 297.734H313.677C314.429 297.734 314.741 298.697 314.133 299.139L309.677 302.376C309.405 302.573 309.291 302.924 309.395 303.244L311.097 308.481C311.33 309.197 310.511 309.791 309.902 309.349L305.447 306.112C305.175 305.915 304.807 305.915 304.534 306.112L300.079 309.349C299.47 309.791 298.652 309.197 298.884 308.481L300.586 303.244C300.69 302.924 300.576 302.573 300.304 302.376L295.849 299.139C295.24 298.697 295.553 297.734 296.305 297.734H301.812C302.149 297.734 302.447 297.518 302.551 297.198L304.252 291.96Z" fill="#03989E"/>
<path d="M323.661 254.696C323.893 253.98 324.905 253.98 325.138 254.696L327.711 262.616C327.815 262.935 328.113 263.152 328.449 263.152H336.777C337.529 263.152 337.841 264.114 337.234 264.556L330.496 269.451C330.224 269.649 330.11 269.999 330.214 270.319L332.787 278.239C333.02 278.954 332.201 279.549 331.593 279.107L324.856 274.212C324.583 274.015 324.215 274.015 323.943 274.212L317.206 279.107C316.597 279.549 315.779 278.954 316.011 278.239L318.584 270.319C318.689 269.999 318.575 269.649 318.303 269.451L311.565 264.556C310.957 264.114 311.27 263.152 312.022 263.152H320.349C320.686 263.152 320.984 262.935 321.088 262.616L323.661 254.696Z" fill="#03989E"/>
<path d="M359.448 221.976C360.145 219.83 363.182 219.83 363.879 221.976L366.37 229.643C366.682 230.602 367.576 231.252 368.585 231.252H376.645C378.901 231.252 379.841 234.139 378.015 235.465L371.494 240.204C370.677 240.797 370.335 241.848 370.647 242.808L373.138 250.474C373.835 252.62 371.38 254.404 369.554 253.078L363.033 248.34C362.216 247.747 361.111 247.747 360.294 248.34L353.773 253.078C351.947 254.404 349.492 252.62 350.189 250.474L352.68 242.808C352.992 241.848 352.65 240.797 351.834 240.204L345.312 235.465C343.486 234.139 344.426 231.252 346.682 231.252H354.742C355.751 231.252 356.645 230.602 356.957 229.643L359.448 221.976Z" fill="#03989E"/>
<path d="M410.686 187.817C411.383 185.671 414.421 185.671 415.118 187.817L419.352 200.848C419.662 201.808 420.557 202.458 421.566 202.458H435.268C437.524 202.458 438.462 205.345 436.636 206.671L425.552 214.724C424.735 215.317 424.393 216.369 424.705 217.328L428.94 230.359C429.637 232.505 427.18 234.289 425.356 232.963L414.271 224.91C413.455 224.317 412.349 224.317 411.533 224.91L400.448 232.963C398.624 234.289 396.167 232.505 396.864 230.359L401.099 217.328C401.411 216.369 401.069 215.317 400.252 214.724L389.168 206.671C387.342 205.345 388.28 202.458 390.536 202.458H404.238C405.247 202.458 406.142 201.808 406.452 200.848L410.686 187.817Z" fill="#03989E"/>
</g>
</g>
<defs>
<filter id="filter0_b_981_989" x="-20" y="-20" width="1240" height="667" filterUnits="userSpaceOnUse" color-interpolation-filters="sRGB">
<feFlood flood-opacity="0" result="BackgroundImageFix"/>
<feGaussianBlur in="BackgroundImage" stdDeviation="10"/>
<feComposite in2="SourceAlpha" operator="in" result="effect1_backgroundBlur_981_989"/>
<feBlend mode="normal" in="SourceGraphic" in2="effect1_backgroundBlur_981_989" result="shape"/>
</filter>
<filter id="filter1_b_981_989" x="-20" y="-20" width="1240" height="667" filterUnits="userSpaceOnUse" color-interpolation-filters="sRGB">
<feFlood flood-opacity="0" result="BackgroundImageFix"/>
<feGaussianBlur in="BackgroundImage" stdDeviation="10"/>
<feComposite in2="SourceAlpha" operator="in" result="effect1_backgroundBlur_981_989"/>
<feBlend mode="normal" in="SourceGraphic" in2="effect1_backgroundBlur_981_989" result="shape"/>
</filter>
<filter id="filter2_b_981_989" x="176" y="177" width="848" height="273.508" filterUnits="userSpaceOnUse" color-interpolation-filters="sRGB">
<feFlood flood-opacity="0" result="BackgroundImageFix"/>
<feGaussianBlur in="BackgroundImage" stdDeviation="2"/>
<feComposite in2="SourceAlpha" operator="in" result="effect1_backgroundBlur_981_989"/>
<feBlend mode="normal" in="SourceGraphic" in2="effect1_backgroundBlur_981_989" result="shape"/>
</filter>
<clipPath id="clip0_981_989">
<rect width="1200" height="627" fill="white"/>
</clipPath>
</defs>
</svg>
